- 
http://www.Speed.Cd 
       
http://www.Speed.Cd      fast  and The Hottest Private Tracker on the net

(((--Submit for invite!!--)))

Please Seed back to make the speed Faster!!!

------------------nfo--------------------------
-








































          
          
              
              
                    
                    
                    
                    

Pirates.of.the.Caribbean.On.Stranger.Tides.2011.720p.BRRip.Xvid.AC3-SiC

Poster:
[img]http://img36.imageshack.us/img36/6335/00d8f6f71488dcd9ad0eee2.jpg[/img]

IMDB Link:
http://www.imdb.com/title/tt1298650/

Description:
Jack Sparrow and Barbossa embark on a quest to find the elusive fountain of youth,
only to discover that Blackbeard and his daughter are after it too.
 
MediaInfo:
General
Complete name                    : Pirates.of.the.Caribbean.On.Stranger.Tides.2011.720p.BRRip.Xvid.AC3-SiC.avi
Format                           : AVI
Format/Info                      : Audio Video Interleave
Format profile                   : OpenDML
File size                        : 2.19 GiB
Duration                         : 2h 16mn
Overall bit rate                 : 2 299 Kbps

Video
ID                               : 0
Format                           : MPEG-4 Visual
Format profile                   : Advanced Simple@L5
Format settings, BVOP            : Yes
Format settings, QPel            : No
Format settings, GMC             : No warppoints
Format settings, Matrix          : Default (H.263)
Muxing mode                      : Packed bitstream
Codec ID                         : XVID
Codec ID/Hint                    : XviD
Duration                         : 2h 16mn
Bit rate                         : 1 910 Kbps
Width                            : 1 280 pixels
Height                           : 544 pixels
Display aspect ratio             : 2.35:1
Frame rate                       : 23.976 fps
Resolution                       : 8 bits
Colorimetry                      : 4:2:0
Scan type                        : Progressive
Bits/(Pixel*Frame)               : 0.114
Stream size                      : 1.82 GiB (83%)
Writing library                  : XviD 64

Audio
ID                               : 1
Format                           : AC-3
Format/Info                      : Audio Coding 3
Format_Settings_ModeExtension    : CM (complete main)
Codec ID                         : 2000
Duration                         : 2h 16mn
Bit rate mode                    : Constant
Bit rate                         : 384 Kbps
Channel(s)                       : 6 channels
Channel positions                : Front: L C R, Side: L R, LFE
Sampling rate                    : 48.0 KHz
Stream size                      : 375 MiB (17%)
Alignment                        : Aligned on interleaves
Interleave, duration             : 64 ms (1.53 video frames)
Interleave, preload duration     : 192 ms
Title                            : 6ch English


Screenshots:
[img]http://img689.imageshack.us/img689/6338/piratesofthecaribbeanonw.png[/img]
[img]http://img594.imageshack.us/img594/7996/piratesofthecaribbeanon.png[/img]
[img]http://img842.imageshack.us/img842/9770/piratesofthecaribbeanonk.png[/img]
[img]http://img12.imageshack.us/img12/152/piratesofthecaribbeanonr.png[/img]
[img]http://img88.imageshack.us/img88/5372/vlcsnap2011082316h55m54.png[/img]
[img]http://img29.imageshack.us/img29/8845/piratesofthecaribbeanonm.png[/img]
[img]http://img508.imageshack.us/img508/9770/piratesofthecaribbeanonk.png[/img]
[img]http://img808.imageshack.us/img808/4503/vlcsnap2011082316h55m28.png[/img]
[img]http://img689.imageshack.us/img689/5478/vlcsnap2011082316h59m44.png[/img]

Note :   srt English Subs added

Source : BluRay-REFiNED Thanks! 

Encoder: Bezauk

Enjoy!

Respects to CaptainHomey, Cyanide, CM8, Rx, THC, ELEKTRI4KA, 
Killerhz, PA, YeFsTe, BoxSlots, MrRep and everyone in the struggle...